# xmcd
#
# Track frame offsets:
#	225
#	13516
#	24464
#	36907
#	49216
#	59307
#	69163
#	82386
#	93348
#	102707
#	114041
#	124975
#
# Disc length: 1803 seconds
#
# Revision: 0
# Processed by: cddbd v1.4b42PL1 Copyright (c) Steve Scherf et al.
# Submitted via: dBpowerAMP V4.0
#
DISCID=9f07080c
DTITLE=Charley Pride - Best Of The Best - Charley Pride
DYEAR=2000
DGENRE=Country
TTITLE0=All I Have To Offer You Is Me
TTITLE1=Does My Ring Hurt Your Finger
TTITLE2=Crystal Chandelier
TTITLE3=Kaw-Liga
TTITLE4=Just Between You And Me
TTITLE5=Someone Loves You Honey
TTITLE6=Mountain Of Love
TTITLE7=Is Anybody Goin' To San Antone
TTITLE8=Kiss An Angel Good Morning
TTITLE9=I'm Just Me
TTITLE10=Mississippi Cotton Pickin' Delta Town
TTITLE11=I Know One
EXTD=
EXTT0=
EXTT1=
EXTT2=
EXTT3=
EXTT4=
EXTT5=
EXTT6=
EXTT7=
EXTT8=
EXTT9=
EXTT10=
EXTT11=
PLAYORDER=
